<mxfile host="app.diagrams.net" agent="Mozilla/5.0 (Windows NT 10.0; Win64; x64) AppleWebKit/537.36 (KHTML, like Gecko) Chrome/131.0.0.0 Safari/537.36" version="26.0.6">
  <diagram name="Page-1" id="9ZxMTc3-ZIYmrqtGS89m">
    <mxGraphModel dx="2759" dy="2135" grid="1" gridSize="10" guides="1" tooltips="1" connect="1" arrows="1" fold="1" page="1" pageScale="1" pageWidth="850" pageHeight="1100" math="0" shadow="0">
      <root>
        <mxCell id="0" />
        <mxCell id="1" parent="0" />
        <mxCell id="K5DJ2QyqGL1iPasBfWRb-60" value="" style="rounded=1;whiteSpace=wrap;html=1;fontSize=16;" parent="1" vertex="1">
          <mxGeometry x="-320" y="-840" width="400" height="230" as="geometry" />
        </mxCell>
        <mxCell id="K5DJ2QyqGL1iPasBfWRb-1" value="" style="rounded=1;whiteSpace=wrap;html=1;fontSize=16;" parent="1" vertex="1">
          <mxGeometry x="-840" y="-1070" width="1000" height="100" as="geometry" />
        </mxCell>
        <mxCell id="K5DJ2QyqGL1iPasBfWRb-70" style="edgeStyle=orthogonalEdgeStyle;rounded=0;orthogonalLoop=1;jettySize=auto;html=1;exitX=0.5;exitY=1;exitDx=0;exitDy=0;entryX=0.5;entryY=0;entryDx=0;entryDy=0;fontSize=16;" parent="1" source="fkIO_1NnW2KMtVDVKhf6-3" target="K5DJ2QyqGL1iPasBfWRb-12" edge="1">
          <mxGeometry relative="1" as="geometry">
            <mxPoint x="-420" y="-990" as="sourcePoint" />
          </mxGeometry>
        </mxCell>
        <mxCell id="K5DJ2QyqGL1iPasBfWRb-5" value="" style="edgeStyle=orthogonalEdgeStyle;rounded=0;orthogonalLoop=1;jettySize=auto;html=1;fontSize=16;exitX=0.5;exitY=1;exitDx=0;exitDy=0;" parent="1" source="fkIO_1NnW2KMtVDVKhf6-2" target="K5DJ2QyqGL1iPasBfWRb-18" edge="1">
          <mxGeometry relative="1" as="geometry">
            <mxPoint x="-255" y="-990" as="sourcePoint" />
          </mxGeometry>
        </mxCell>
        <mxCell id="K5DJ2QyqGL1iPasBfWRb-7" value="" style="edgeStyle=orthogonalEdgeStyle;rounded=0;orthogonalLoop=1;jettySize=auto;html=1;fontSize=16;exitX=0.5;exitY=1;exitDx=0;exitDy=0;" parent="1" source="fkIO_1NnW2KMtVDVKhf6-4" target="K5DJ2QyqGL1iPasBfWRb-24" edge="1">
          <mxGeometry relative="1" as="geometry">
            <mxPoint x="-740" y="-990" as="sourcePoint" />
          </mxGeometry>
        </mxCell>
        <mxCell id="K5DJ2QyqGL1iPasBfWRb-9" value="" style="edgeStyle=orthogonalEdgeStyle;rounded=0;orthogonalLoop=1;jettySize=auto;html=1;fontSize=16;" parent="1" source="K5DJ2QyqGL1iPasBfWRb-10" target="K5DJ2QyqGL1iPasBfWRb-20" edge="1">
          <mxGeometry relative="1" as="geometry" />
        </mxCell>
        <mxCell id="K5DJ2QyqGL1iPasBfWRb-10" value="URDF" style="rounded=1;whiteSpace=wrap;html=1;fontSize=16;" parent="1" vertex="1">
          <mxGeometry x="-640" y="-1050" width="120" height="60" as="geometry" />
        </mxCell>
        <mxCell id="K5DJ2QyqGL1iPasBfWRb-105" style="edgeStyle=orthogonalEdgeStyle;rounded=0;orthogonalLoop=1;jettySize=auto;html=1;exitX=0.5;exitY=1;exitDx=0;exitDy=0;entryX=0;entryY=0.5;entryDx=0;entryDy=0;fontSize=16;" parent="1" source="K5DJ2QyqGL1iPasBfWRb-12" target="K5DJ2QyqGL1iPasBfWRb-14" edge="1">
          <mxGeometry relative="1" as="geometry" />
        </mxCell>
        <mxCell id="K5DJ2QyqGL1iPasBfWRb-106" style="edgeStyle=orthogonalEdgeStyle;rounded=0;orthogonalLoop=1;jettySize=auto;html=1;exitX=0.5;exitY=1;exitDx=0;exitDy=0;entryX=0.25;entryY=0;entryDx=0;entryDy=0;fontSize=16;" parent="1" source="K5DJ2QyqGL1iPasBfWRb-12" target="K5DJ2QyqGL1iPasBfWRb-55" edge="1">
          <mxGeometry relative="1" as="geometry">
            <Array as="points">
              <mxPoint x="-420" y="-790" />
              <mxPoint x="-350" y="-790" />
              <mxPoint x="-350" y="-720" />
              <mxPoint x="-130" y="-720" />
            </Array>
          </mxGeometry>
        </mxCell>
        <mxCell id="K5DJ2QyqGL1iPasBfWRb-12" value="Motor Node" style="whiteSpace=wrap;html=1;rounded=1;fontSize=16;" parent="1" vertex="1">
          <mxGeometry x="-480" y="-930" width="120" height="60" as="geometry" />
        </mxCell>
        <mxCell id="K5DJ2QyqGL1iPasBfWRb-113" style="edgeStyle=orthogonalEdgeStyle;rounded=0;orthogonalLoop=1;jettySize=auto;html=1;exitX=0.5;exitY=1;exitDx=0;exitDy=0;entryX=0.95;entryY=0.25;entryDx=0;entryDy=0;fontSize=16;entryPerimeter=0;" parent="1" source="K5DJ2QyqGL1iPasBfWRb-14" target="fkIO_1NnW2KMtVDVKhf6-6" edge="1">
          <mxGeometry relative="1" as="geometry">
            <mxPoint x="-400" y="-710" as="targetPoint" />
          </mxGeometry>
        </mxCell>
        <mxCell id="K5DJ2QyqGL1iPasBfWRb-14" value="EKF_Local" style="rounded=1;whiteSpace=wrap;html=1;fontSize=16;" parent="1" vertex="1">
          <mxGeometry x="-300" y="-820" width="120" height="60" as="geometry" />
        </mxCell>
        <mxCell id="K5DJ2QyqGL1iPasBfWRb-15" value="INPUTS" style="text;html=1;align=center;verticalAlign=middle;whiteSpace=wrap;rounded=0;fontSize=16;" parent="1" vertex="1">
          <mxGeometry x="-480" y="-1100" width="60" height="30" as="geometry" />
        </mxCell>
        <mxCell id="K5DJ2QyqGL1iPasBfWRb-16" value="ROBOT LOCALIZATION" style="text;html=1;align=center;verticalAlign=middle;whiteSpace=wrap;rounded=0;fontSize=16;" parent="1" vertex="1">
          <mxGeometry x="-330" y="-650" width="170" height="30" as="geometry" />
        </mxCell>
        <mxCell id="K5DJ2QyqGL1iPasBfWRb-103" style="edgeStyle=orthogonalEdgeStyle;rounded=0;orthogonalLoop=1;jettySize=auto;html=1;exitX=0.5;exitY=1;exitDx=0;exitDy=0;entryX=0.419;entryY=0.009;entryDx=0;entryDy=0;fontSize=16;entryPerimeter=0;" parent="1" source="K5DJ2QyqGL1iPasBfWRb-18" target="K5DJ2QyqGL1iPasBfWRb-55" edge="1">
          <mxGeometry relative="1" as="geometry">
            <Array as="points">
              <mxPoint x="-255" y="-860" />
              <mxPoint x="-110" y="-860" />
              <mxPoint x="-110" y="-699" />
            </Array>
          </mxGeometry>
        </mxCell>
        <mxCell id="K5DJ2QyqGL1iPasBfWRb-104" style="edgeStyle=orthogonalEdgeStyle;rounded=0;orthogonalLoop=1;jettySize=auto;html=1;exitX=0.5;exitY=1;exitDx=0;exitDy=0;entryX=0.38;entryY=0;entryDx=0;entryDy=0;entryPerimeter=0;fontSize=16;" parent="1" source="K5DJ2QyqGL1iPasBfWRb-18" target="K5DJ2QyqGL1iPasBfWRb-14" edge="1">
          <mxGeometry relative="1" as="geometry" />
        </mxCell>
        <mxCell id="K5DJ2QyqGL1iPasBfWRb-18" value="IMU Publisher" style="whiteSpace=wrap;html=1;rounded=1;fontSize=16;" parent="1" vertex="1">
          <mxGeometry x="-315" y="-930" width="120" height="60" as="geometry" />
        </mxCell>
        <mxCell id="K5DJ2QyqGL1iPasBfWRb-19" value="" style="edgeStyle=orthogonalEdgeStyle;rounded=0;orthogonalLoop=1;jettySize=auto;html=1;fontSize=16;" parent="1" source="K5DJ2QyqGL1iPasBfWRb-20" target="K5DJ2QyqGL1iPasBfWRb-26" edge="1">
          <mxGeometry relative="1" as="geometry" />
        </mxCell>
        <mxCell id="K5DJ2QyqGL1iPasBfWRb-20" value="Robot State Publisher" style="whiteSpace=wrap;html=1;rounded=1;fontSize=16;" parent="1" vertex="1">
          <mxGeometry x="-650" y="-930" width="140" height="60" as="geometry" />
        </mxCell>
        <mxCell id="K5DJ2QyqGL1iPasBfWRb-21" style="edgeStyle=orthogonalEdgeStyle;rounded=0;orthogonalLoop=1;jettySize=auto;html=1;exitX=0;exitY=0.5;exitDx=0;exitDy=0;entryX=0;entryY=0.5;entryDx=0;entryDy=0;fontSize=16;" parent="1" source="K5DJ2QyqGL1iPasBfWRb-26" target="K5DJ2QyqGL1iPasBfWRb-20" edge="1">
          <mxGeometry relative="1" as="geometry" />
        </mxCell>
        <mxCell id="K5DJ2QyqGL1iPasBfWRb-22" style="edgeStyle=orthogonalEdgeStyle;rounded=0;orthogonalLoop=1;jettySize=auto;html=1;exitX=0.5;exitY=1;exitDx=0;exitDy=0;fontSize=16;" parent="1" source="K5DJ2QyqGL1iPasBfWRb-26" target="K5DJ2QyqGL1iPasBfWRb-26" edge="1">
          <mxGeometry relative="1" as="geometry" />
        </mxCell>
        <mxCell id="K5DJ2QyqGL1iPasBfWRb-24" value="sllidar_ros2" style="whiteSpace=wrap;html=1;rounded=1;fontSize=16;" parent="1" vertex="1">
          <mxGeometry x="-795" y="-930" width="110" height="60" as="geometry" />
        </mxCell>
        <mxCell id="K5DJ2QyqGL1iPasBfWRb-25" value="" style="edgeStyle=orthogonalEdgeStyle;rounded=0;orthogonalLoop=1;jettySize=auto;html=1;entryX=0.5;entryY=0;entryDx=0;entryDy=0;fontSize=16;" parent="1" source="K5DJ2QyqGL1iPasBfWRb-20" target="K5DJ2QyqGL1iPasBfWRb-26" edge="1">
          <mxGeometry relative="1" as="geometry">
            <mxPoint x="-640" y="-900" as="sourcePoint" />
            <mxPoint x="-350" y="-740" as="targetPoint" />
          </mxGeometry>
        </mxCell>
        <mxCell id="K5DJ2QyqGL1iPasBfWRb-112" style="edgeStyle=orthogonalEdgeStyle;rounded=0;orthogonalLoop=1;jettySize=auto;html=1;exitX=0.5;exitY=1;exitDx=0;exitDy=0;entryX=0;entryY=0.5;entryDx=0;entryDy=0;fontSize=16;" parent="1" source="K5DJ2QyqGL1iPasBfWRb-26" target="fkIO_1NnW2KMtVDVKhf6-6" edge="1">
          <mxGeometry relative="1" as="geometry">
            <mxPoint x="-520" y="-710" as="targetPoint" />
          </mxGeometry>
        </mxCell>
        <mxCell id="K5DJ2QyqGL1iPasBfWRb-26" value="Joint State Publisher" style="whiteSpace=wrap;html=1;rounded=1;fontSize=16;" parent="1" vertex="1">
          <mxGeometry x="-650" y="-820" width="140" height="60" as="geometry" />
        </mxCell>
        <mxCell id="K5DJ2QyqGL1iPasBfWRb-59" style="edgeStyle=orthogonalEdgeStyle;rounded=0;orthogonalLoop=1;jettySize=auto;html=1;exitX=0.5;exitY=1;exitDx=0;exitDy=0;entryX=0.5;entryY=0;entryDx=0;entryDy=0;fontSize=16;" parent="1" source="fkIO_1NnW2KMtVDVKhf6-1" target="K5DJ2QyqGL1iPasBfWRb-53" edge="1">
          <mxGeometry relative="1" as="geometry">
            <mxPoint x="-100" y="-990" as="sourcePoint" />
          </mxGeometry>
        </mxCell>
        <mxCell id="K5DJ2QyqGL1iPasBfWRb-102" style="edgeStyle=orthogonalEdgeStyle;rounded=0;orthogonalLoop=1;jettySize=auto;html=1;exitX=0.5;exitY=1;exitDx=0;exitDy=0;entryX=0.428;entryY=-0.022;entryDx=0;entryDy=0;fontSize=16;entryPerimeter=0;" parent="1" source="K5DJ2QyqGL1iPasBfWRb-53" target="K5DJ2QyqGL1iPasBfWRb-54" edge="1">
          <mxGeometry relative="1" as="geometry">
            <Array as="points">
              <mxPoint x="-100" y="-860" />
              <mxPoint x="1" y="-860" />
            </Array>
          </mxGeometry>
        </mxCell>
        <mxCell id="K5DJ2QyqGL1iPasBfWRb-53" value="Nmea Navsat Driver" style="rounded=1;whiteSpace=wrap;html=1;fontSize=16;" parent="1" vertex="1">
          <mxGeometry x="-160" y="-930" width="120" height="60" as="geometry" />
        </mxCell>
        <mxCell id="K5DJ2QyqGL1iPasBfWRb-63" style="edgeStyle=orthogonalEdgeStyle;rounded=0;orthogonalLoop=1;jettySize=auto;html=1;exitX=0.5;exitY=1;exitDx=0;exitDy=0;entryX=1;entryY=0.5;entryDx=0;entryDy=0;fontSize=16;" parent="1" source="K5DJ2QyqGL1iPasBfWRb-54" target="K5DJ2QyqGL1iPasBfWRb-55" edge="1">
          <mxGeometry relative="1" as="geometry" />
        </mxCell>
        <mxCell id="K5DJ2QyqGL1iPasBfWRb-54" value="Navsat Transform Node" style="rounded=1;whiteSpace=wrap;html=1;fontSize=16;" parent="1" vertex="1">
          <mxGeometry x="-50" y="-780" width="120" height="60" as="geometry" />
        </mxCell>
        <mxCell id="K5DJ2QyqGL1iPasBfWRb-67" style="edgeStyle=orthogonalEdgeStyle;rounded=0;orthogonalLoop=1;jettySize=auto;html=1;exitX=0.75;exitY=0;exitDx=0;exitDy=0;entryX=0;entryY=0.5;entryDx=0;entryDy=0;fontSize=16;" parent="1" source="K5DJ2QyqGL1iPasBfWRb-55" target="K5DJ2QyqGL1iPasBfWRb-54" edge="1">
          <mxGeometry relative="1" as="geometry" />
        </mxCell>
        <mxCell id="K5DJ2QyqGL1iPasBfWRb-145" style="edgeStyle=orthogonalEdgeStyle;rounded=0;orthogonalLoop=1;jettySize=auto;html=1;exitX=0;exitY=0.75;exitDx=0;exitDy=0;entryX=1;entryY=0.5;entryDx=0;entryDy=0;" parent="1" source="K5DJ2QyqGL1iPasBfWRb-55" target="fkIO_1NnW2KMtVDVKhf6-6" edge="1">
          <mxGeometry relative="1" as="geometry">
            <mxPoint x="-400" y="-695" as="targetPoint" />
            <Array as="points">
              <mxPoint x="-360" y="-655" />
              <mxPoint x="-360" y="-720" />
            </Array>
          </mxGeometry>
        </mxCell>
        <mxCell id="K5DJ2QyqGL1iPasBfWRb-55" value="EKF_Global" style="rounded=1;whiteSpace=wrap;html=1;fontSize=16;" parent="1" vertex="1">
          <mxGeometry x="-160" y="-700" width="120" height="60" as="geometry" />
        </mxCell>
        <mxCell id="K5DJ2QyqGL1iPasBfWRb-84" value="" style="rounded=1;whiteSpace=wrap;html=1;fontSize=16;" parent="1" vertex="1">
          <mxGeometry x="-840" y="-549" width="875" height="450" as="geometry" />
        </mxCell>
        <mxCell id="K5DJ2QyqGL1iPasBfWRb-85" value="" style="rounded=1;whiteSpace=wrap;html=1;fontSize=16;" parent="1" vertex="1">
          <mxGeometry x="270" y="-1040" width="600" height="700" as="geometry" />
        </mxCell>
        <mxCell id="K5DJ2QyqGL1iPasBfWRb-86" value="TF" style="text;html=1;align=center;verticalAlign=middle;whiteSpace=wrap;rounded=0;fontSize=16;" parent="1" vertex="1">
          <mxGeometry x="449" y="-1070" width="60" height="30" as="geometry" />
        </mxCell>
        <mxCell id="K5DJ2QyqGL1iPasBfWRb-87" value="" style="edgeStyle=orthogonalEdgeStyle;rounded=0;orthogonalLoop=1;jettySize=auto;html=1;fontSize=16;fillColor=#f8cecc;strokeColor=default;strokeWidth=1;exitX=0.5;exitY=1;exitDx=0;exitDy=0;entryX=0.5;entryY=0;entryDx=0;entryDy=0;" parent="1" source="fkIO_1NnW2KMtVDVKhf6-38" target="fkIO_1NnW2KMtVDVKhf6-44" edge="1">
          <mxGeometry relative="1" as="geometry">
            <mxPoint x="520" y="-970" as="sourcePoint" />
            <mxPoint x="520" y="-890" as="targetPoint" />
          </mxGeometry>
        </mxCell>
        <mxCell id="K5DJ2QyqGL1iPasBfWRb-89" value="" style="edgeStyle=orthogonalEdgeStyle;rounded=0;orthogonalLoop=1;jettySize=auto;html=1;fontSize=16;exitX=0.5;exitY=1;exitDx=0;exitDy=0;entryX=0.5;entryY=0;entryDx=0;entryDy=0;" parent="1" source="fkIO_1NnW2KMtVDVKhf6-44" target="fkIO_1NnW2KMtVDVKhf6-43" edge="1">
          <mxGeometry relative="1" as="geometry">
            <mxPoint x="520" y="-830" as="sourcePoint" />
            <mxPoint x="520" y="-750" as="targetPoint" />
          </mxGeometry>
        </mxCell>
        <mxCell id="K5DJ2QyqGL1iPasBfWRb-91" value="" style="edgeStyle=orthogonalEdgeStyle;rounded=0;orthogonalLoop=1;jettySize=auto;html=1;fontSize=16;exitX=0.5;exitY=1;exitDx=0;exitDy=0;" parent="1" source="fkIO_1NnW2KMtVDVKhf6-43" target="fkIO_1NnW2KMtVDVKhf6-42" edge="1">
          <mxGeometry relative="1" as="geometry">
            <mxPoint x="520" y="-690" as="sourcePoint" />
            <mxPoint x="520" y="-610" as="targetPoint" />
          </mxGeometry>
        </mxCell>
        <mxCell id="K5DJ2QyqGL1iPasBfWRb-93" style="edgeStyle=orthogonalEdgeStyle;rounded=0;orthogonalLoop=1;jettySize=auto;html=1;exitX=0.5;exitY=1;exitDx=0;exitDy=0;entryX=0.5;entryY=0;entryDx=0;entryDy=0;fontSize=16;" parent="1" edge="1" target="fkIO_1NnW2KMtVDVKhf6-40">
          <mxGeometry relative="1" as="geometry">
            <mxPoint x="520" y="-550" as="sourcePoint" />
            <mxPoint x="527" y="-440" as="targetPoint" />
            <Array as="points">
              <mxPoint x="520" y="-440" />
            </Array>
          </mxGeometry>
        </mxCell>
        <mxCell id="K5DJ2QyqGL1iPasBfWRb-94" style="edgeStyle=orthogonalEdgeStyle;rounded=0;orthogonalLoop=1;jettySize=auto;html=1;exitX=0.5;exitY=1;exitDx=0;exitDy=0;entryX=0.5;entryY=0;entryDx=0;entryDy=0;fontSize=16;" parent="1" edge="1">
          <mxGeometry relative="1" as="geometry">
            <mxPoint x="520" y="-550" as="sourcePoint" />
            <mxPoint x="398" y="-440" as="targetPoint" />
            <Array as="points">
              <mxPoint x="520" y="-510" />
              <mxPoint x="398" y="-510" />
            </Array>
          </mxGeometry>
        </mxCell>
        <mxCell id="K5DJ2QyqGL1iPasBfWRb-95" style="edgeStyle=orthogonalEdgeStyle;rounded=0;orthogonalLoop=1;jettySize=auto;html=1;exitX=0.5;exitY=1;exitDx=0;exitDy=0;entryX=0.5;entryY=0;entryDx=0;entryDy=0;fontSize=16;" parent="1" edge="1">
          <mxGeometry relative="1" as="geometry">
            <mxPoint x="520" y="-550" as="sourcePoint" />
            <mxPoint x="657" y="-440" as="targetPoint" />
            <Array as="points">
              <mxPoint x="520" y="-510" />
              <mxPoint x="657" y="-510" />
            </Array>
          </mxGeometry>
        </mxCell>
        <mxCell id="K5DJ2QyqGL1iPasBfWRb-96" style="edgeStyle=orthogonalEdgeStyle;rounded=0;orthogonalLoop=1;jettySize=auto;html=1;exitX=0.5;exitY=1;exitDx=0;exitDy=0;entryX=0.5;entryY=0;entryDx=0;entryDy=0;fontSize=16;" parent="1" edge="1">
          <mxGeometry relative="1" as="geometry">
            <mxPoint x="520" y="-550" as="sourcePoint" />
            <mxPoint x="788" y="-440" as="targetPoint" />
            <Array as="points">
              <mxPoint x="520" y="-510" />
              <mxPoint x="788" y="-510" />
            </Array>
          </mxGeometry>
        </mxCell>
        <mxCell id="K5DJ2QyqGL1iPasBfWRb-132" style="edgeStyle=orthogonalEdgeStyle;rounded=0;orthogonalLoop=1;jettySize=auto;html=1;exitX=0.5;exitY=1;exitDx=0;exitDy=0;entryX=0.5;entryY=0;entryDx=0;entryDy=0;" parent="1" source="K5DJ2QyqGL1iPasBfWRb-117" target="K5DJ2QyqGL1iPasBfWRb-125" edge="1">
          <mxGeometry relative="1" as="geometry" />
        </mxCell>
        <mxCell id="K5DJ2QyqGL1iPasBfWRb-117" value="Global Costmap" style="rounded=1;whiteSpace=wrap;html=1;fontSize=16;" parent="1" vertex="1">
          <mxGeometry x="-600" y="-509" width="120" height="60" as="geometry" />
        </mxCell>
        <mxCell id="K5DJ2QyqGL1iPasBfWRb-130" style="edgeStyle=orthogonalEdgeStyle;rounded=0;orthogonalLoop=1;jettySize=auto;html=1;exitX=0.5;exitY=1;exitDx=0;exitDy=0;entryX=0.5;entryY=0;entryDx=0;entryDy=0;" parent="1" source="K5DJ2QyqGL1iPasBfWRb-118" target="K5DJ2QyqGL1iPasBfWRb-127" edge="1">
          <mxGeometry relative="1" as="geometry" />
        </mxCell>
        <mxCell id="K5DJ2QyqGL1iPasBfWRb-131" style="edgeStyle=orthogonalEdgeStyle;rounded=0;orthogonalLoop=1;jettySize=auto;html=1;exitX=0.5;exitY=1;exitDx=0;exitDy=0;entryX=0.5;entryY=0;entryDx=0;entryDy=0;" parent="1" source="K5DJ2QyqGL1iPasBfWRb-118" target="K5DJ2QyqGL1iPasBfWRb-126" edge="1">
          <mxGeometry relative="1" as="geometry" />
        </mxCell>
        <mxCell id="K5DJ2QyqGL1iPasBfWRb-118" value="Local Costmap" style="rounded=1;whiteSpace=wrap;html=1;fontSize=16;" parent="1" vertex="1">
          <mxGeometry x="-770" y="-509" width="120" height="60" as="geometry" />
        </mxCell>
        <mxCell id="K5DJ2QyqGL1iPasBfWRb-120" style="edgeStyle=orthogonalEdgeStyle;rounded=0;orthogonalLoop=1;jettySize=auto;html=1;exitX=0.5;exitY=1;exitDx=0;exitDy=0;entryX=0.5;entryY=0;entryDx=0;entryDy=0;fontSize=16;" parent="1" source="K5DJ2QyqGL1iPasBfWRb-119" target="K5DJ2QyqGL1iPasBfWRb-117" edge="1">
          <mxGeometry relative="1" as="geometry">
            <Array as="points">
              <mxPoint x="60" y="-940" />
              <mxPoint x="110" y="-940" />
              <mxPoint x="110" y="-580" />
              <mxPoint x="-540" y="-580" />
            </Array>
          </mxGeometry>
        </mxCell>
        <mxCell id="K5DJ2QyqGL1iPasBfWRb-141" style="edgeStyle=orthogonalEdgeStyle;rounded=0;orthogonalLoop=1;jettySize=auto;html=1;exitX=0.5;exitY=1;exitDx=0;exitDy=0;" parent="1" source="K5DJ2QyqGL1iPasBfWRb-119" target="fkIO_1NnW2KMtVDVKhf6-12" edge="1">
          <mxGeometry relative="1" as="geometry">
            <Array as="points">
              <mxPoint x="60" y="-940" />
              <mxPoint x="110" y="-940" />
              <mxPoint x="110" y="-480" />
            </Array>
            <mxPoint x="-50" y="-480" as="targetPoint" />
          </mxGeometry>
        </mxCell>
        <mxCell id="K5DJ2QyqGL1iPasBfWRb-119" value="Map" style="rounded=1;whiteSpace=wrap;html=1;fontSize=16;" parent="1" vertex="1">
          <mxGeometry y="-1050" width="120" height="60" as="geometry" />
        </mxCell>
        <mxCell id="K5DJ2QyqGL1iPasBfWRb-23" style="edgeStyle=orthogonalEdgeStyle;rounded=0;orthogonalLoop=1;jettySize=auto;html=1;exitX=0.5;exitY=1;exitDx=0;exitDy=0;entryX=0.5;entryY=0;entryDx=0;entryDy=0;fontSize=16;" parent="1" source="K5DJ2QyqGL1iPasBfWRb-24" target="K5DJ2QyqGL1iPasBfWRb-118" edge="1">
          <mxGeometry relative="1" as="geometry">
            <mxPoint x="-740" y="-710" as="targetPoint" />
          </mxGeometry>
        </mxCell>
        <mxCell id="K5DJ2QyqGL1iPasBfWRb-139" style="edgeStyle=orthogonalEdgeStyle;rounded=0;orthogonalLoop=1;jettySize=auto;html=1;exitX=0;exitY=0.5;exitDx=0;exitDy=0;entryX=1;entryY=0.5;entryDx=0;entryDy=0;" parent="1" target="K5DJ2QyqGL1iPasBfWRb-128" edge="1">
          <mxGeometry relative="1" as="geometry">
            <mxPoint x="-310" y="-175" as="sourcePoint" />
          </mxGeometry>
        </mxCell>
        <mxCell id="K5DJ2QyqGL1iPasBfWRb-136" style="edgeStyle=orthogonalEdgeStyle;rounded=0;orthogonalLoop=1;jettySize=auto;html=1;exitX=0.5;exitY=1;exitDx=0;exitDy=0;entryX=1;entryY=0.25;entryDx=0;entryDy=0;startArrow=classic;startFill=1;" parent="1" source="K5DJ2QyqGL1iPasBfWRb-124" target="K5DJ2QyqGL1iPasBfWRb-128" edge="1">
          <mxGeometry relative="1" as="geometry">
            <Array as="points">
              <mxPoint x="-330" y="-280" />
              <mxPoint x="-420" y="-280" />
              <mxPoint x="-420" y="-202" />
            </Array>
          </mxGeometry>
        </mxCell>
        <mxCell id="K5DJ2QyqGL1iPasBfWRb-124" value="Recovery Sever" style="rounded=1;whiteSpace=wrap;html=1;fontSize=16;" parent="1" vertex="1">
          <mxGeometry x="-390" y="-359" width="120" height="60" as="geometry" />
        </mxCell>
        <mxCell id="K5DJ2QyqGL1iPasBfWRb-133" style="edgeStyle=orthogonalEdgeStyle;rounded=0;orthogonalLoop=1;jettySize=auto;html=1;exitX=0.5;exitY=1;exitDx=0;exitDy=0;entryX=0.907;entryY=0.001;entryDx=0;entryDy=0;entryPerimeter=0;startArrow=classic;startFill=1;" parent="1" source="K5DJ2QyqGL1iPasBfWRb-125" target="K5DJ2QyqGL1iPasBfWRb-128" edge="1">
          <mxGeometry relative="1" as="geometry" />
        </mxCell>
        <mxCell id="K5DJ2QyqGL1iPasBfWRb-125" value="Planner S&lt;span style=&quot;background-color: transparent; color: light-dark(rgb(0, 0, 0), rgb(255, 255, 255));&quot;&gt;erver&lt;/span&gt;" style="rounded=1;whiteSpace=wrap;html=1;fontSize=16;" parent="1" vertex="1">
          <mxGeometry x="-530" y="-359" width="120" height="60" as="geometry" />
        </mxCell>
        <mxCell id="K5DJ2QyqGL1iPasBfWRb-134" style="edgeStyle=orthogonalEdgeStyle;rounded=0;orthogonalLoop=1;jettySize=auto;html=1;exitX=0.5;exitY=1;exitDx=0;exitDy=0;entryX=0.388;entryY=0.002;entryDx=0;entryDy=0;entryPerimeter=0;startArrow=classic;startFill=1;" parent="1" source="K5DJ2QyqGL1iPasBfWRb-126" target="K5DJ2QyqGL1iPasBfWRb-128" edge="1">
          <mxGeometry relative="1" as="geometry" />
        </mxCell>
        <mxCell id="K5DJ2QyqGL1iPasBfWRb-126" value="Behavior Server" style="rounded=1;whiteSpace=wrap;html=1;fontSize=16;" parent="1" vertex="1">
          <mxGeometry x="-670" y="-359" width="120" height="60" as="geometry" />
        </mxCell>
        <mxCell id="K5DJ2QyqGL1iPasBfWRb-135" style="edgeStyle=orthogonalEdgeStyle;rounded=0;orthogonalLoop=1;jettySize=auto;html=1;exitX=0.5;exitY=1;exitDx=0;exitDy=0;entryX=0;entryY=0.5;entryDx=0;entryDy=0;startArrow=classic;startFill=1;" parent="1" source="K5DJ2QyqGL1iPasBfWRb-127" target="K5DJ2QyqGL1iPasBfWRb-128" edge="1">
          <mxGeometry relative="1" as="geometry" />
        </mxCell>
        <mxCell id="K5DJ2QyqGL1iPasBfWRb-138" style="edgeStyle=orthogonalEdgeStyle;rounded=0;orthogonalLoop=1;jettySize=auto;html=1;exitX=0.25;exitY=1;exitDx=0;exitDy=0;entryX=0.5;entryY=0;entryDx=0;entryDy=0;" parent="1" source="K5DJ2QyqGL1iPasBfWRb-127" target="fkIO_1NnW2KMtVDVKhf6-5" edge="1">
          <mxGeometry relative="1" as="geometry">
            <Array as="points" />
            <mxPoint x="-790" y="-60" as="targetPoint" />
          </mxGeometry>
        </mxCell>
        <mxCell id="K5DJ2QyqGL1iPasBfWRb-127" value="Controller Server" style="rounded=1;whiteSpace=wrap;html=1;fontSize=16;" parent="1" vertex="1">
          <mxGeometry x="-820" y="-359" width="120" height="60" as="geometry" />
        </mxCell>
        <mxCell id="K5DJ2QyqGL1iPasBfWRb-128" value="behavior tree navigator server" style="rounded=1;whiteSpace=wrap;html=1;fontSize=16;" parent="1" vertex="1">
          <mxGeometry x="-715" y="-229" width="270" height="110" as="geometry" />
        </mxCell>
        <mxCell id="K5DJ2QyqGL1iPasBfWRb-143" style="edgeStyle=orthogonalEdgeStyle;rounded=0;orthogonalLoop=1;jettySize=auto;html=1;exitX=0;exitY=0.5;exitDx=0;exitDy=0;entryX=0.5;entryY=1;entryDx=0;entryDy=0;strokeColor=default;strokeWidth=1;" parent="1" source="K5DJ2QyqGL1iPasBfWRb-140" target="fkIO_1NnW2KMtVDVKhf6-6" edge="1">
          <mxGeometry relative="1" as="geometry">
            <Array as="points">
              <mxPoint x="-360" y="-480" />
              <mxPoint x="-360" y="-620" />
              <mxPoint x="-460" y="-620" />
            </Array>
            <mxPoint x="-460" y="-680" as="targetPoint" />
          </mxGeometry>
        </mxCell>
        <mxCell id="K5DJ2QyqGL1iPasBfWRb-140" value="AMCL" style="rounded=1;whiteSpace=wrap;html=1;fontSize=16;" parent="1" vertex="1">
          <mxGeometry x="-320" y="-509" width="120" height="60" as="geometry" />
        </mxCell>
        <mxCell id="K5DJ2QyqGL1iPasBfWRb-142" style="edgeStyle=orthogonalEdgeStyle;rounded=0;orthogonalLoop=1;jettySize=auto;html=1;exitX=0.5;exitY=1;exitDx=0;exitDy=0;entryX=0.5;entryY=0;entryDx=0;entryDy=0;" parent="1" source="K5DJ2QyqGL1iPasBfWRb-24" target="K5DJ2QyqGL1iPasBfWRb-140" edge="1">
          <mxGeometry relative="1" as="geometry">
            <Array as="points">
              <mxPoint x="-740" y="-690" />
              <mxPoint x="-710" y="-690" />
              <mxPoint x="-710" y="-600" />
              <mxPoint x="-260" y="-600" />
            </Array>
          </mxGeometry>
        </mxCell>
        <mxCell id="K5DJ2QyqGL1iPasBfWRb-146" value="" style="endArrow=none;dashed=1;html=1;rounded=0;strokeWidth=3;" parent="1" edge="1">
          <mxGeometry width="50" height="50" relative="1" as="geometry">
            <mxPoint x="-170" y="-590" as="sourcePoint" />
            <mxPoint x="-170" y="-590" as="targetPoint" />
            <Array as="points">
              <mxPoint x="-170" y="-740" />
              <mxPoint x="-170" y="-1080" />
              <mxPoint x="-30" y="-1080" />
              <mxPoint x="-30" y="-850" />
              <mxPoint x="90" y="-850" />
              <mxPoint x="90" y="-590" />
            </Array>
          </mxGeometry>
        </mxCell>
        <mxCell id="5oHQnFIC7V8zJsHM4A3x-1" style="edgeStyle=orthogonalEdgeStyle;rounded=0;orthogonalLoop=1;jettySize=auto;html=1;exitX=0;exitY=0.5;exitDx=0;exitDy=0;" parent="1" source="K5DJ2QyqGL1iPasBfWRb-147" edge="1">
          <mxGeometry relative="1" as="geometry">
            <mxPoint x="521" y="-930.1428571428571" as="targetPoint" />
          </mxGeometry>
        </mxCell>
        <mxCell id="K5DJ2QyqGL1iPasBfWRb-147" value="EKF_Global /&lt;div&gt;AMCL&lt;/div&gt;" style="rounded=1;whiteSpace=wrap;html=1;fontSize=16;" parent="1" vertex="1">
          <mxGeometry x="691" y="-960" width="120" height="60" as="geometry" />
        </mxCell>
        <mxCell id="5oHQnFIC7V8zJsHM4A3x-2" style="edgeStyle=orthogonalEdgeStyle;rounded=0;orthogonalLoop=1;jettySize=auto;html=1;exitX=0;exitY=0.5;exitDx=0;exitDy=0;" parent="1" source="K5DJ2QyqGL1iPasBfWRb-148" edge="1">
          <mxGeometry relative="1" as="geometry">
            <mxPoint x="520" y="-813.1428571428571" as="targetPoint" />
          </mxGeometry>
        </mxCell>
        <mxCell id="K5DJ2QyqGL1iPasBfWRb-148" value="EKF_Local" style="rounded=1;whiteSpace=wrap;html=1;fontSize=16;" parent="1" vertex="1">
          <mxGeometry x="690" y="-843" width="120" height="60" as="geometry" />
        </mxCell>
        <mxCell id="K5DJ2QyqGL1iPasBfWRb-153" style="edgeStyle=orthogonalEdgeStyle;rounded=0;orthogonalLoop=1;jettySize=auto;html=1;exitX=0;exitY=0.5;exitDx=0;exitDy=0;" parent="1" source="K5DJ2QyqGL1iPasBfWRb-149" edge="1">
          <mxGeometry relative="1" as="geometry">
            <mxPoint x="518" y="-653.75" as="targetPoint" />
          </mxGeometry>
        </mxCell>
        <mxCell id="K5DJ2QyqGL1iPasBfWRb-154" style="edgeStyle=orthogonalEdgeStyle;rounded=0;orthogonalLoop=1;jettySize=auto;html=1;exitX=0;exitY=0.5;exitDx=0;exitDy=0;" parent="1" source="K5DJ2QyqGL1iPasBfWRb-149" edge="1">
          <mxGeometry relative="1" as="geometry">
            <mxPoint x="518" y="-539.0000000000002" as="targetPoint" />
            <Array as="points">
              <mxPoint x="648" y="-654" />
              <mxPoint x="648" y="-539" />
            </Array>
          </mxGeometry>
        </mxCell>
        <mxCell id="K5DJ2QyqGL1iPasBfWRb-149" value="Robot state publisher" style="rounded=1;whiteSpace=wrap;html=1;fontSize=16;" parent="1" vertex="1">
          <mxGeometry x="698" y="-684" width="120" height="60" as="geometry" />
        </mxCell>
        <mxCell id="Lqi8G9-BFTlNfhmi8exw-1" value="" style="endArrow=classic;html=1;rounded=0;exitX=1;exitY=0.5;exitDx=0;exitDy=0;entryX=1;entryY=0.375;entryDx=0;entryDy=0;entryPerimeter=0;" parent="1" source="K5DJ2QyqGL1iPasBfWRb-124" target="fkIO_1NnW2KMtVDVKhf6-5" edge="1">
          <mxGeometry width="50" height="50" relative="1" as="geometry">
            <mxPoint x="-30" y="-490" as="sourcePoint" />
            <mxPoint x="-730" y="-30" as="targetPoint" />
            <Array as="points">
              <mxPoint x="-160" y="-330" />
              <mxPoint x="-160" y="-30" />
            </Array>
          </mxGeometry>
        </mxCell>
        <mxCell id="Lqi8G9-BFTlNfhmi8exw-2" value="&lt;font style=&quot;font-size: 16px;&quot;&gt;Navigation2&lt;/font&gt;" style="text;html=1;align=center;verticalAlign=middle;whiteSpace=wrap;rounded=0;" parent="1" vertex="1">
          <mxGeometry x="-50" y="-250" width="60" height="30" as="geometry" />
        </mxCell>
        <mxCell id="fkIO_1NnW2KMtVDVKhf6-1" value="&lt;span style=&quot;font-size: 16px;&quot;&gt;GNSS&lt;/span&gt;" style="ellipse;whiteSpace=wrap;html=1;" parent="1" vertex="1">
          <mxGeometry x="-160" y="-1060" width="120" height="80" as="geometry" />
        </mxCell>
        <mxCell id="fkIO_1NnW2KMtVDVKhf6-2" value="&lt;span style=&quot;font-size: 16px;&quot;&gt;IMU&lt;/span&gt;" style="ellipse;whiteSpace=wrap;html=1;" parent="1" vertex="1">
          <mxGeometry x="-315" y="-1060" width="120" height="80" as="geometry" />
        </mxCell>
        <mxCell id="fkIO_1NnW2KMtVDVKhf6-3" value="&lt;span style=&quot;color: rgb(0, 0, 0); font-family: Helvetica; font-size: 16px; font-style: normal; font-variant-ligatures: normal; font-variant-caps: normal; font-weight: 400; letter-spacing: normal; orphans: 2; text-align: center; text-indent: 0px; text-transform: none; widows: 2; word-spacing: 0px; -webkit-text-stroke-width: 0px; white-space: normal; background-color: rgb(251, 251, 251); text-decoration-thickness: initial; text-decoration-style: initial; text-decoration-color: initial; float: none; display: inline !important;&quot;&gt;Encoder&lt;/span&gt;" style="ellipse;whiteSpace=wrap;html=1;" parent="1" vertex="1">
          <mxGeometry x="-480" y="-1060" width="120" height="80" as="geometry" />
        </mxCell>
        <mxCell id="fkIO_1NnW2KMtVDVKhf6-4" value="&lt;span style=&quot;color: rgb(0, 0, 0); font-family: Helvetica; font-size: 16px; font-style: normal; font-variant-ligatures: normal; font-variant-caps: normal; font-weight: 400; letter-spacing: normal; orphans: 2; text-align: center; text-indent: 0px; text-transform: none; widows: 2; word-spacing: 0px; -webkit-text-stroke-width: 0px; white-space: normal; background-color: rgb(251, 251, 251); text-decoration-thickness: initial; text-decoration-style: initial; text-decoration-color: initial; float: none; display: inline !important;&quot;&gt;LiDAR&lt;/span&gt;" style="ellipse;whiteSpace=wrap;html=1;" parent="1" vertex="1">
          <mxGeometry x="-800" y="-1060" width="120" height="80" as="geometry" />
        </mxCell>
        <mxCell id="fkIO_1NnW2KMtVDVKhf6-5" value="&lt;span style=&quot;font-size: 16px;&quot;&gt;cmd_vel&lt;/span&gt;" style="ellipse;whiteSpace=wrap;html=1;aspect=fixed;" parent="1" vertex="1">
          <mxGeometry x="-830" y="-59" width="80" height="80" as="geometry" />
        </mxCell>
        <mxCell id="fkIO_1NnW2KMtVDVKhf6-6" value="&lt;span style=&quot;font-size: 16px;&quot;&gt;TF&lt;/span&gt;" style="ellipse;whiteSpace=wrap;html=1;aspect=fixed;" parent="1" vertex="1">
          <mxGeometry x="-500" y="-760" width="80" height="80" as="geometry" />
        </mxCell>
        <mxCell id="fkIO_1NnW2KMtVDVKhf6-7" value="&lt;font style=&quot;font-size: 16px;&quot;&gt;/scan&lt;/font&gt;" style="text;html=1;align=center;verticalAlign=middle;whiteSpace=wrap;rounded=0;" parent="1" vertex="1">
          <mxGeometry x="-794" y="-780" width="60" height="30" as="geometry" />
        </mxCell>
        <mxCell id="fkIO_1NnW2KMtVDVKhf6-8" value="&lt;font style=&quot;font-size: 16px;&quot;&gt;/imu&lt;/font&gt;" style="text;html=1;align=center;verticalAlign=middle;whiteSpace=wrap;rounded=0;" parent="1" vertex="1">
          <mxGeometry x="-305" y="-872" width="60" height="30" as="geometry" />
        </mxCell>
        <mxCell id="fkIO_1NnW2KMtVDVKhf6-9" value="&lt;font style=&quot;font-size: 16px;&quot;&gt;/odom_diff&lt;/font&gt;" style="text;html=1;align=center;verticalAlign=middle;whiteSpace=wrap;rounded=0;" parent="1" vertex="1">
          <mxGeometry x="-505" y="-860" width="90" height="30" as="geometry" />
        </mxCell>
        <mxCell id="fkIO_1NnW2KMtVDVKhf6-11" value="&lt;font style=&quot;font-size: 16px;&quot;&gt;/gps/fix&lt;/font&gt;" style="text;html=1;align=center;verticalAlign=middle;whiteSpace=wrap;rounded=0;" parent="1" vertex="1">
          <mxGeometry x="-20" y="-890" width="60" height="30" as="geometry" />
        </mxCell>
        <mxCell id="fkIO_1NnW2KMtVDVKhf6-13" style="edgeStyle=orthogonalEdgeStyle;rounded=0;orthogonalLoop=1;jettySize=auto;html=1;exitX=0;exitY=0.5;exitDx=0;exitDy=0;entryX=1;entryY=0.5;entryDx=0;entryDy=0;" parent="1" source="fkIO_1NnW2KMtVDVKhf6-12" target="K5DJ2QyqGL1iPasBfWRb-140" edge="1">
          <mxGeometry relative="1" as="geometry" />
        </mxCell>
        <mxCell id="fkIO_1NnW2KMtVDVKhf6-12" value="&lt;font style=&quot;font-size: 16px;&quot;&gt;Map Server&lt;/font&gt;" style="rounded=1;whiteSpace=wrap;html=1;" parent="1" vertex="1">
          <mxGeometry x="-130" y="-509" width="120" height="60" as="geometry" />
        </mxCell>
        <mxCell id="fkIO_1NnW2KMtVDVKhf6-14" value="&lt;font style=&quot;font-size: 16px;&quot;&gt;/map&lt;/font&gt;" style="text;html=1;align=center;verticalAlign=middle;whiteSpace=wrap;rounded=0;" parent="1" vertex="1">
          <mxGeometry x="-190" y="-510" width="60" height="30" as="geometry" />
        </mxCell>
        <mxCell id="fkIO_1NnW2KMtVDVKhf6-15" value="&lt;span style=&quot;font-size: 16px;&quot;&gt;goal pose /&lt;/span&gt;&lt;div style=&quot;font-size: 16px;&quot;&gt;waypoint&lt;/div&gt;" style="ellipse;whiteSpace=wrap;html=1;aspect=fixed;" parent="1" vertex="1">
          <mxGeometry x="-310" y="-229" width="110" height="110" as="geometry" />
        </mxCell>
        <mxCell id="fkIO_1NnW2KMtVDVKhf6-23" value="" style="rounded=1;whiteSpace=wrap;html=1;strokeWidth=3;" parent="1" vertex="1">
          <mxGeometry x="-830" y="44" width="990" height="110" as="geometry" />
        </mxCell>
        <mxCell id="fkIO_1NnW2KMtVDVKhf6-24" value="" style="ellipse;whiteSpace=wrap;html=1;rounded=1;fontSize=16;" parent="1" vertex="1">
          <mxGeometry x="-776" y="59" width="80" height="80" as="geometry" />
        </mxCell>
        <mxCell id="fkIO_1NnW2KMtVDVKhf6-25" value="&lt;span style=&quot;font-size: 20px;&quot;&gt;Topic&lt;/span&gt;" style="text;html=1;align=center;verticalAlign=middle;whiteSpace=wrap;rounded=0;fontSize=16;" parent="1" vertex="1">
          <mxGeometry x="-714" y="84" width="110" height="30" as="geometry" />
        </mxCell>
        <mxCell id="fkIO_1NnW2KMtVDVKhf6-26" value="" style="rounded=1;whiteSpace=wrap;html=1;fontSize=16;" parent="1" vertex="1">
          <mxGeometry x="-497" y="69" width="120" height="60" as="geometry" />
        </mxCell>
        <mxCell id="fkIO_1NnW2KMtVDVKhf6-27" value="&lt;font style=&quot;font-size: 20px;&quot;&gt;Software / Program&lt;/font&gt;" style="text;html=1;align=center;verticalAlign=middle;whiteSpace=wrap;rounded=0;fontSize=16;" parent="1" vertex="1">
          <mxGeometry x="-372" y="84" width="175" height="30" as="geometry" />
        </mxCell>
        <mxCell id="fkIO_1NnW2KMtVDVKhf6-28" value="" style="ellipse;whiteSpace=wrap;html=1;" parent="1" vertex="1">
          <mxGeometry x="-99" y="59" width="120" height="80" as="geometry" />
        </mxCell>
        <mxCell id="fkIO_1NnW2KMtVDVKhf6-29" value="&lt;span style=&quot;font-size: 20px;&quot;&gt;Hardware&lt;/span&gt;" style="text;html=1;align=center;verticalAlign=middle;whiteSpace=wrap;rounded=0;fontSize=16;" parent="1" vertex="1">
          <mxGeometry x="28" y="84" width="90" height="30" as="geometry" />
        </mxCell>
        <mxCell id="fkIO_1NnW2KMtVDVKhf6-30" value="" style="rounded=1;whiteSpace=wrap;html=1;" parent="1" vertex="1">
          <mxGeometry x="275" y="-320" width="595" height="110" as="geometry" />
        </mxCell>
        <mxCell id="fkIO_1NnW2KMtVDVKhf6-31" value="" style="ellipse;whiteSpace=wrap;html=1;rounded=1;fontSize=16;" parent="1" vertex="1">
          <mxGeometry x="293" y="-305" width="80" height="80" as="geometry" />
        </mxCell>
        <mxCell id="fkIO_1NnW2KMtVDVKhf6-32" value="&lt;span style=&quot;font-size: 20px;&quot;&gt;Frame&lt;/span&gt;" style="text;html=1;align=center;verticalAlign=middle;whiteSpace=wrap;rounded=0;fontSize=16;" parent="1" vertex="1">
          <mxGeometry x="385" y="-280" width="110" height="30" as="geometry" />
        </mxCell>
        <mxCell id="fkIO_1NnW2KMtVDVKhf6-33" value="" style="rounded=1;whiteSpace=wrap;html=1;fontSize=16;" parent="1" vertex="1">
          <mxGeometry x="553" y="-295" width="120" height="60" as="geometry" />
        </mxCell>
        <mxCell id="fkIO_1NnW2KMtVDVKhf6-34" value="&lt;font style=&quot;font-size: 20px;&quot;&gt;Software / Program&lt;/font&gt;" style="text;html=1;align=center;verticalAlign=middle;whiteSpace=wrap;rounded=0;fontSize=16;" parent="1" vertex="1">
          <mxGeometry x="685" y="-280" width="175" height="30" as="geometry" />
        </mxCell>
        <mxCell id="fkIO_1NnW2KMtVDVKhf6-38" value="map" style="ellipse;whiteSpace=wrap;html=1;rounded=1;fontSize=16;" parent="1" vertex="1">
          <mxGeometry x="481" y="-1030" width="80" height="80" as="geometry" />
        </mxCell>
        <mxCell id="fkIO_1NnW2KMtVDVKhf6-39" value="IMU" style="ellipse;whiteSpace=wrap;html=1;rounded=1;fontSize=16;" parent="1" vertex="1">
          <mxGeometry x="618" y="-440" width="80" height="80" as="geometry" />
        </mxCell>
        <mxCell id="fkIO_1NnW2KMtVDVKhf6-40" value="right wheel" style="ellipse;whiteSpace=wrap;html=1;rounded=1;fontSize=16;aspect=fixed;" parent="1" vertex="1">
          <mxGeometry x="473.5" y="-440" width="93" height="93" as="geometry" />
        </mxCell>
        <mxCell id="fkIO_1NnW2KMtVDVKhf6-41" value="left wheel" style="ellipse;whiteSpace=wrap;html=1;rounded=1;fontSize=16;" parent="1" vertex="1">
          <mxGeometry x="361" y="-440" width="80" height="80" as="geometry" />
        </mxCell>
        <mxCell id="fkIO_1NnW2KMtVDVKhf6-42" value="base_link" style="ellipse;whiteSpace=wrap;html=1;rounded=1;fontSize=16;" parent="1" vertex="1">
          <mxGeometry x="481" y="-630" width="80" height="80" as="geometry" />
        </mxCell>
        <mxCell id="fkIO_1NnW2KMtVDVKhf6-43" value="base_footprint" style="ellipse;whiteSpace=wrap;html=1;rounded=1;fontSize=16;aspect=fixed;" parent="1" vertex="1">
          <mxGeometry x="465" y="-780" width="110" height="110" as="geometry" />
        </mxCell>
        <mxCell id="fkIO_1NnW2KMtVDVKhf6-44" value="odom" style="ellipse;whiteSpace=wrap;html=1;rounded=1;fontSize=16;" parent="1" vertex="1">
          <mxGeometry x="481" y="-910" width="80" height="80" as="geometry" />
        </mxCell>
        <mxCell id="fkIO_1NnW2KMtVDVKhf6-46" value="LiDAR" style="ellipse;whiteSpace=wrap;html=1;rounded=1;fontSize=16;" parent="1" vertex="1">
          <mxGeometry x="748" y="-440" width="80" height="80" as="geometry" />
        </mxCell>
      </root>
    </mxGraphModel>
  </diagram>
</mxfile>
